<?xml version="1.0" encoding="utf-8"?>
<svg width="307px" height="402px" viewBox="0 0 307 402" version="1.1" xmlns:xlink="http://www.w3.org/1999/xlink" xmlns="http://www.w3.org/2000/svg">
  <desc>Created with Lunacy</desc>
  <path d="M288 361L248.26 65.8676L242.5 55.5L232.579 42.199L225 35L214.532 27.4061L205 22.5L192.5 20L183.5 21L176 28L174.5 38L176 45.5L181 50L189 55.5L195.5 60.5L201.5 66.5L205.5 73L209.5 81.5L209.5 91L200 109.5L197.5 122.5L204 127C204 127 211.875 120.25 217.5 112C223.125 103.75 224.625 101.729 226.5 94C228.375 86.2713 228.864 82 227 73.5C225.136 65 224.75 63.5 219 56C213.25 48.5 205 42.5 205 42.5L191.5 32.5L197.5 28L206.5 30L216.307 35.6901C216.307 35.6901 224.702 42.4225 231 51C237.298 59.5775 238.372 61.2457 241 71.5C243.628 81.7543 242.5 91 242.5 91C242.5 91 241.75 98.25 239.5 107C237.25 115.75 233.5 126.5 233.5 126.5L223 155L225.5 196L221.5 205L236.5 215L245.5 216.5L246 231.5L241.5 236L242.5 242.5L248 244L252 239.5L250.5 200L261.5 200L264.5 257L276.5 361L265 359L262.5 350.5L257 348.5L224.5 374.5L224.5 400L77 400L78.0297 374.127L17 328L14 356.5L9 359.5L0 359.5L15.5 253L19.5 244.5L27.5 238L42 229.5L57.5 220.5L68 211L70.5 200.5L71.5 190.5L71 181L70 171L62.5 160L53 146L45 128.5L40 110.5L39.5 87.5L45 69.5L54 55.5L63 45L61.5 35.5L51.3145 27.8289L48 21L49.5 13L57 5L69.5 0L83 0.5L95 7L103 20L108 20.5L114.5 30L104.5 35.5L96 30L96 36.5L95.5 48.5L97.5 57L104 62.5L131 50.5L127.5 44.5L127 26L114.61 16.7305L108 9.5L123.5 6L140 4.5L167 4L188.5 7L208 13L224.5 22.5L236.5 30.5L250 43.5L259.5 59.5L264 73L304.5 360" transform="translate(1 1)" id="New-shape" fill="none" stroke="#24FF96" stroke-width="2" />
</svg>